# xmcd CD database file
#
# Track frame offsets:
#	150
#	39955
#	80333
#	104051
#	125891
#
# Disc length: 2412 seconds
#
# Revision: 0
# Processed by: cddbd v1.5.1PL2 Copyright (c) Steve Scherf et al.
# Submitted via: CDex 1.51
#
DISCID=3e096a05
DTITLE=Myriam - L'epée de vérité
DYEAR=2005
DGENRE=New Age
TTITLE0=Toré Amor
TTITLE1=Lucia
TTITLE2=Ma Terre
TTITLE3=Leileha
TTITLE4=Passeurs Elle
EXTD=YEAR: 2005
EXTT0=
EXTT1=
EXTT2=
EXTT3=
EXTT4=
PLAYORDER=
